<?xml version="1.0" encoding="UTF-8"?>
<svg width="240" height="186" viewBox="0 0 240 186" xmlns="http://www.w3.org/2000/svg" fill="none">
  <g transform="translate(80,0) scale(1.667)">
  <path d="M24 4L40 9V22C40 32 33 39.5 24 43C15 39.5 8 32 8 22V9L24 4Z" fill="#10B981"/>
  <path d="M24 7.5L37 11.5V22C37 30 31 36.5 24 39C17 36.5 11 30 11 22V11.5L24 7.5Z"
    fill="none" stroke="#0A0A0A" stroke-width="0.9" stroke-opacity="0.28"/>
  <circle cx="24" cy="7.5" r="1.4" fill="#0A0A0A" fill-opacity="0.28"/>
  <circle cx="11" cy="11.5" r="1" fill="#0A0A0A" fill-opacity="0.22"/>
  <circle cx="37" cy="11.5" r="1" fill="#0A0A0A" fill-opacity="0.22"/>
  <circle cx="24" cy="19" r="6.5" fill="#0A0A0A"/>
  <rect x="21" y="24" width="6" height="10" rx="2" fill="#0A0A0A"/>
  </g>
  <text x="120" y="118" text-anchor="middle"
    font-family="Inter, Helvetica Neue, Arial, sans-serif"
    font-size="28" font-weight="800" fill="#F5F5F5" letter-spacing="-0.045em"
    text-transform="uppercase">CHAT</text>
  <text x="120" y="150" text-anchor="middle"
    font-family="Inter, Helvetica Neue, Arial, sans-serif"
    font-size="28" font-weight="800" fill="#10B981" letter-spacing="-0.045em"
    text-transform="uppercase">ANÓNIMO</text>
  <rect x="97" y="158" width="50" height="22" rx="5" fill="rgba(6,78,59,0.45)" stroke="rgba(16,185,129,0.3)" stroke-width="1"/>
  <text x="122" y="174" text-anchor="middle"
    font-family="JetBrains Mono, Courier New, monospace"
    font-size="12" font-weight="600" fill="#34D399">v2.5</text>
</svg>